<svg xmlns="http://www.w3.org/2000/svg" viewBox="0 0 64 64" width="64" height="64">
  <g transform="translate(4, 2)">
    <!-- Left decorative bars -->
    <rect fill="#E87B22" x="0" y="10" width="18" height="4" rx="2"/>
    <rect fill="#E87B22" x="0" y="18" width="22" height="4" rx="2"/>
    <rect fill="#E87B22" x="0" y="26" width="16" height="4" rx="2"/>
    <rect fill="#E87B22" x="0" y="34" width="22" height="4" rx="2"/>
    <rect fill="#E87B22" x="0" y="42" width="18" height="4" rx="2"/>
    
    <!-- P Stem and Loop -->
    <path fill="#E87B22" d="M26 6 C42 6, 54 14, 54 27 C54 40, 42 48, 26 48 L26 56 C26 57.5, 24.5 59, 23 59 L19 59 L19 6 Z M26 38 C36 38, 44 33, 44 27 C44 21, 36 16, 26 16 Z" />
    
    <!-- Gold Accent Bar -->
    <rect fill="#C9A84C" x="26" y="52" width="24" height="4" rx="2"/>
  </g>
</svg>
