<svg xmlns="http://www.w3.org/2000/svg" viewBox="0 0 360 96" role="img" aria-labelledby="title desc">
  <title id="title">Panarwala &amp; Associates</title>
  <desc id="desc">Orange Panarwala &amp; Associates wordmark with a stylized P mark.</desc>
  <defs>
    <style>
      .orange { fill: #e87b22; }
      .navy { fill: #102a4c; }
      .gold { fill: #c9a84c; }
      .word { font-family: Georgia, "Times New Roman", serif; font-weight: 700; letter-spacing: 6px; }
      .sub { font-family: Arial, Helvetica, sans-serif; font-weight: 700; letter-spacing: 9px; }
    </style>
  </defs>
  <g transform="translate(12 12)">
    <path class="orange" d="M51.8 9.1c18.5 0 29.4 8.1 29.4 21.8 0 14-10.9 22.5-29.4 22.5H39.1v18.5H24.7V9.1h27.1Zm-.8 32.6c9.9 0 15.5-3.8 15.5-10.6 0-6.7-5.6-10.3-15.5-10.3H39.1v20.9H51Z"/>
    <path class="orange" d="M1.5 15.7h28.3v5.4H1.5zM0 25.2h24.9v5.4H0zM3.7 34.7h21.2v5.4H3.7zM0 44.2h24.9v5.4H0zM1.5 53.7h28.3v5.4H1.5z"/>
    <path class="gold" d="M39.1 53.4h24.3v6.2H39.1z"/>
  </g>
  <text class="word orange" x="110" y="43" font-size="22">PANARWALA</text>
  <text class="sub orange" x="113" y="67" font-size="11">ASSOCIATES</text>
</svg>
